# xmcd
#
# Track frame offsets: 
#        150
#        11350
#        33477
#        81302
#        90644
#        155868
#        188558
#        244340
#        255207
#
# Disc length: 3915 seconds
#
# Revision: 6
# Processed by: cddbd v1.5.1PL2 Copyright (c) Steve Scherf et al.
# Submitted via: ExactAudioCopy v0.95b3
#
DISCID=660f4909
DTITLE=SANTANA - Jin-Go-Lo-Ba
DYEAR=1996
DGENRE=Blues
TTITLE0=01. Acapulco Sunrise
TTITLE1=02. Soul Sacrifice
TTITLE2=03. Fried Neckbones And Home Fries
TTITLE3=04. Let's Get Ourseves Together
TTITLE4=05. Jin-Go-Lo-Ba
TTITLE5=06. As The Years Go By
TTITLE6=07. La Puesta Del Sol
TTITLE7=08. Coconut Grove
TTITLE8=09. Jam In E
EXTD=YEAR: 1996
EXTT0=
EXTT1=
EXTT2=
EXTT3=
EXTT4=
EXTT5=
EXTT6=
EXTT7=
EXTT8=
PLAYORDER=
